<?xml version="1.0" encoding="UTF-8" standalone="no"?>
<!DOCTYPE svg PUBLIC "-//W3C//DTD SVG 1.1//EN"
 "http://www.w3.org/Graphics/SVG/1.1/DTD/svg11.dtd">
<!-- Generated by graphviz version 3.0.0 (20221109.1736)
 -->
<!-- Pages: 1 -->
<svg width="1583pt" height="976pt"
 viewBox="0.00 0.00 1583.47 975.77" xmlns="http://www.w3.org/2000/svg" xmlns:xlink="http://www.w3.org/1999/xlink">
<g id="graph0" class="graph" transform="scale(1 1) rotate(0) translate(36 939.77)">
<polygon fill="white" stroke="transparent" points="-36,36 -36,-939.77 1547.47,-939.77 1547.47,36 -36,36"/>
<!-- setup -->
<g id="node1" class="node">
<title>setup</title>
<polygon fill="none" stroke="black" points="708.47,-125 356.47,-125 356.47,-121 352.47,-121 352.47,-117 356.47,-117 356.47,-95 352.47,-95 352.47,-91 356.47,-91 356.47,-87 708.47,-87 708.47,-125"/>
<polyline fill="none" stroke="black" points="356.47,-121 360.47,-121 360.47,-117 356.47,-117 "/>
<polyline fill="none" stroke="black" points="356.47,-95 360.47,-95 360.47,-91 356.47,-91 "/>
<text text-anchor="middle" x="532.47" y="-109.8" font-family="Times,serif" font-size="14.00">setup</text>
<text text-anchor="middle" x="532.47" y="-94.8" font-family="Times,serif" font-size="14.00">(docker.elastic.co/elasticsearch/elasticsearch:8.9.2)</text>
</g>
<!-- certs -->
<g id="node2" class="node">
<title>certs</title>
<path fill="none" stroke="black" d="M805.47,-32.73C805.47,-34.53 793.37,-36 778.47,-36 763.57,-36 751.47,-34.53 751.47,-32.73 751.47,-32.73 751.47,-3.27 751.47,-3.27 751.47,-1.47 763.57,0 778.47,0 793.37,0 805.47,-1.47 805.47,-3.27 805.47,-3.27 805.47,-32.73 805.47,-32.73"/>
<path fill="none" stroke="black" d="M805.47,-32.73C805.47,-30.92 793.37,-29.45 778.47,-29.45 763.57,-29.45 751.47,-30.92 751.47,-32.73"/>
<text text-anchor="middle" x="778.47" y="-14.3" font-family="Times,serif" font-size="14.00">certs</text>
</g>
<!-- setup&#45;&gt;certs -->
<g id="edge1" class="edge">
<title>setup&#45;&gt;certs</title>
<path fill="none" stroke="black" stroke-dasharray="5,2" d="M490.15,-80.78C480.7,-72.43 475.54,-62.92 483.47,-54 500.34,-35.01 665.91,-24.52 741.35,-20.7"/>
<polygon fill="black" stroke="black" points="488.02,-83.56 498.07,-86.91 492.31,-78.02 488.02,-83.56"/>
<polygon fill="black" stroke="black" points="741.56,-24.19 751.38,-20.2 741.22,-17.2 741.56,-24.19"/>
<text text-anchor="middle" x="602.97" y="-57.8" font-family="Times,serif" font-size="14.00">/usr/share/elasticsearch/config/certs</text>
</g>
<!-- es01 -->
<g id="node3" class="node">
<title>es01</title>
<polygon fill="none" stroke="black" points="493.47,-214 141.47,-214 141.47,-210 137.47,-210 137.47,-206 141.47,-206 141.47,-184 137.47,-184 137.47,-180 141.47,-180 141.47,-176 493.47,-176 493.47,-214"/>
<polyline fill="none" stroke="black" points="141.47,-210 145.47,-210 145.47,-206 141.47,-206 "/>
<polyline fill="none" stroke="black" points="141.47,-184 145.47,-184 145.47,-180 141.47,-180 "/>
<text text-anchor="middle" x="317.47" y="-198.8" font-family="Times,serif" font-size="14.00">es01</text>
<text text-anchor="middle" x="317.47" y="-183.8" font-family="Times,serif" font-size="14.00">(docker.elastic.co/elasticsearch/elasticsearch:8.9.2)</text>
</g>
<!-- es01&#45;&gt;setup -->
<g id="edge5" class="edge">
<title>es01&#45;&gt;setup</title>
<path fill="none" stroke="black" stroke-dasharray="1,5" d="M456.06,-175.92C478.22,-171.06 496.98,-165.12 506.47,-158 514.35,-152.09 520.03,-143.1 524.02,-134.32"/>
<polygon fill="black" stroke="black" points="527.28,-135.6 527.73,-125.01 520.78,-133.01 527.28,-135.6"/>
</g>
<!-- es01&#45;&gt;certs -->
<g id="edge2" class="edge">
<title>es01&#45;&gt;certs</title>
<path fill="none" stroke="black" stroke-dasharray="5,2" d="M131.32,-180.04C43.43,-166.46 -32.75,-139.71 15.47,-87 64.89,-32.97 594,-21.58 740.85,-19.45"/>
<polygon fill="black" stroke="black" points="130.84,-183.51 141.25,-181.51 131.87,-176.58 130.84,-183.51"/>
<polygon fill="black" stroke="black" points="741.2,-22.94 751.15,-19.3 741.1,-15.94 741.2,-22.94"/>
<text text-anchor="middle" x="134.97" y="-102.3" font-family="Times,serif" font-size="14.00">/usr/share/elasticsearch/config/certs</text>
</g>
<!-- esdata01 -->
<g id="node4" class="node">
<title>esdata01</title>
<path fill="none" stroke="black" d="M338.97,-120.73C338.97,-122.53 322.16,-124 301.47,-124 280.78,-124 263.97,-122.53 263.97,-120.73 263.97,-120.73 263.97,-91.27 263.97,-91.27 263.97,-89.47 280.78,-88 301.47,-88 322.16,-88 338.97,-89.47 338.97,-91.27 338.97,-91.27 338.97,-120.73 338.97,-120.73"/>
<path fill="none" stroke="black" d="M338.97,-120.73C338.97,-118.92 322.16,-117.45 301.47,-117.45 280.78,-117.45 263.97,-118.92 263.97,-120.73"/>
<text text-anchor="middle" x="301.47" y="-102.3" font-family="Times,serif" font-size="14.00">esdata01</text>
</g>
<!-- es01&#45;&gt;esdata01 -->
<g id="edge3" class="edge">
<title>es01&#45;&gt;esdata01</title>
<path fill="none" stroke="black" stroke-dasharray="5,2" d="M312.32,-166.01C310.44,-155.77 308.31,-144.22 306.45,-134.07"/>
<polygon fill="black" stroke="black" points="308.9,-166.77 314.15,-175.97 315.79,-165.51 308.9,-166.77"/>
<polygon fill="black" stroke="black" points="309.87,-133.32 304.62,-124.12 302.98,-134.58 309.87,-133.32"/>
<text text-anchor="middle" x="406.47" y="-146.8" font-family="Times,serif" font-size="14.00">/usr/share/elasticsearch/data</text>
</g>
<!-- 0.0.0.09200 -->
<g id="node5" class="node">
<title>0.0.0.09200</title>
<ellipse fill="none" stroke="black" cx="331.47" cy="-324.79" rx="59.59" ry="59.59"/>
<text text-anchor="middle" x="331.47" y="-321.09" font-family="Times,serif" font-size="14.00">0.0.0.0:9200</text>
</g>
<!-- 0.0.0.09200&#45;&gt;es01 -->
<g id="edge4" class="edge">
<title>0.0.0.09200&#45;&gt;es01</title>
<path fill="none" stroke="black" d="M325.04,-265.13C323.49,-250.97 321.9,-236.45 320.58,-224.41"/>
<polygon fill="black" stroke="black" points="324.02,-223.68 319.45,-214.12 317.06,-224.44 324.02,-223.68"/>
<text text-anchor="middle" x="338.97" y="-235.8" font-family="Times,serif" font-size="14.00">9200</text>
</g>
<!-- es02 -->
<g id="node6" class="node">
<title>es02</title>
<polygon fill="none" stroke="black" points="761.47,-343.79 409.47,-343.79 409.47,-339.79 405.47,-339.79 405.47,-335.79 409.47,-335.79 409.47,-313.79 405.47,-313.79 405.47,-309.79 409.47,-309.79 409.47,-305.79 761.47,-305.79 761.47,-343.79"/>
<polyline fill="none" stroke="black" points="409.47,-339.79 413.47,-339.79 413.47,-335.79 409.47,-335.79 "/>
<polyline fill="none" stroke="black" points="409.47,-313.79 413.47,-313.79 413.47,-309.79 409.47,-309.79 "/>
<text text-anchor="middle" x="585.47" y="-328.59" font-family="Times,serif" font-size="14.00">es02</text>
<text text-anchor="middle" x="585.47" y="-313.59" font-family="Times,serif" font-size="14.00">(docker.elastic.co/elasticsearch/elasticsearch:8.9.2)</text>
</g>
<!-- es02&#45;&gt;certs -->
<g id="edge6" class="edge">
<title>es02&#45;&gt;certs</title>
<path fill="none" stroke="black" stroke-dasharray="5,2" d="M571.62,-296.53C553.93,-257.41 529.84,-185.42 567.47,-143 589.75,-117.89 689.46,-143.51 717.47,-125 745.34,-106.58 761.99,-70.77 770.69,-45.9"/>
<polygon fill="black" stroke="black" points="568.52,-298.16 575.94,-305.73 574.86,-295.19 568.52,-298.16"/>
<polygon fill="black" stroke="black" points="774.04,-46.91 773.84,-36.31 767.39,-44.72 774.04,-46.91"/>
<text text-anchor="middle" x="686.97" y="-146.8" font-family="Times,serif" font-size="14.00">/usr/share/elasticsearch/config/certs</text>
</g>
<!-- es02&#45;&gt;es01 -->
<g id="edge8" class="edge">
<title>es02&#45;&gt;es01</title>
<path fill="none" stroke="black" stroke-dasharray="1,5" d="M547.64,-305.76C499.59,-282.84 416.68,-243.31 364.58,-218.46"/>
<polygon fill="black" stroke="black" points="366.07,-215.3 355.54,-214.15 363.06,-221.62 366.07,-215.3"/>
</g>
<!-- esdata02 -->
<g id="node7" class="node">
<title>esdata02</title>
<path fill="none" stroke="black" d="M669.97,-209.73C669.97,-211.53 653.16,-213 632.47,-213 611.78,-213 594.97,-211.53 594.97,-209.73 594.97,-209.73 594.97,-180.27 594.97,-180.27 594.97,-178.47 611.78,-177 632.47,-177 653.16,-177 669.97,-178.47 669.97,-180.27 669.97,-180.27 669.97,-209.73 669.97,-209.73"/>
<path fill="none" stroke="black" d="M669.97,-209.73C669.97,-207.92 653.16,-206.45 632.47,-206.45 611.78,-206.45 594.97,-207.92 594.97,-209.73"/>
<text text-anchor="middle" x="632.47" y="-191.3" font-family="Times,serif" font-size="14.00">esdata02</text>
</g>
<!-- es02&#45;&gt;esdata02 -->
<g id="edge7" class="edge">
<title>es02&#45;&gt;esdata02</title>
<path fill="none" stroke="black" stroke-dasharray="5,2" d="M593.08,-295.76C598.37,-277.37 605.99,-252.95 614.47,-232 615.73,-228.89 617.15,-225.68 618.62,-222.52"/>
<polygon fill="black" stroke="black" points="589.66,-294.98 590.31,-305.56 596.4,-296.88 589.66,-294.98"/>
<polygon fill="black" stroke="black" points="621.87,-223.84 623.12,-213.32 615.58,-220.77 621.87,-223.84"/>
<text text-anchor="middle" x="710.47" y="-235.8" font-family="Times,serif" font-size="14.00">/usr/share/elasticsearch/data</text>
</g>
<!-- es03 -->
<g id="node8" class="node">
<title>es03</title>
<polygon fill="none" stroke="black" points="951.47,-473.59 599.47,-473.59 599.47,-469.59 595.47,-469.59 595.47,-465.59 599.47,-465.59 599.47,-443.59 595.47,-443.59 595.47,-439.59 599.47,-439.59 599.47,-435.59 951.47,-435.59 951.47,-473.59"/>
<polyline fill="none" stroke="black" points="599.47,-469.59 603.47,-469.59 603.47,-465.59 599.47,-465.59 "/>
<polyline fill="none" stroke="black" points="599.47,-443.59 603.47,-443.59 603.47,-439.59 599.47,-439.59 "/>
<text text-anchor="middle" x="775.47" y="-458.39" font-family="Times,serif" font-size="14.00">es03</text>
<text text-anchor="middle" x="775.47" y="-443.39" font-family="Times,serif" font-size="14.00">(docker.elastic.co/elasticsearch/elasticsearch:8.9.2)</text>
</g>
<!-- es03&#45;&gt;certs -->
<g id="edge9" class="edge">
<title>es03&#45;&gt;certs</title>
<path fill="none" stroke="black" stroke-dasharray="5,2" d="M791.13,-426.29C804.12,-401.05 820.47,-362.09 820.47,-325.79 820.47,-325.79 820.47,-325.79 820.47,-105 820.47,-83.13 809.37,-61.01 798.58,-44.69"/>
<polygon fill="black" stroke="black" points="787.97,-424.78 786.36,-435.25 794.15,-428.07 787.97,-424.78"/>
<polygon fill="black" stroke="black" points="801.28,-42.45 792.69,-36.25 795.54,-46.45 801.28,-42.45"/>
<text text-anchor="middle" x="939.97" y="-191.3" font-family="Times,serif" font-size="14.00">/usr/share/elasticsearch/config/certs</text>
</g>
<!-- es03&#45;&gt;es02 -->
<g id="edge11" class="edge">
<title>es03&#45;&gt;es02</title>
<path fill="none" stroke="black" stroke-dasharray="1,5" d="M748.65,-435.55C715.22,-413.07 657.99,-374.57 620.95,-349.66"/>
<polygon fill="black" stroke="black" points="622.71,-346.63 612.46,-343.95 618.8,-352.43 622.71,-346.63"/>
</g>
<!-- esdata03 -->
<g id="node9" class="node">
<title>esdata03</title>
<path fill="none" stroke="black" d="M923.97,-339.52C923.97,-341.33 907.16,-342.79 886.47,-342.79 865.78,-342.79 848.97,-341.33 848.97,-339.52 848.97,-339.52 848.97,-310.07 848.97,-310.07 848.97,-308.26 865.78,-306.79 886.47,-306.79 907.16,-306.79 923.97,-308.26 923.97,-310.07 923.97,-310.07 923.97,-339.52 923.97,-339.52"/>
<path fill="none" stroke="black" d="M923.97,-339.52C923.97,-337.72 907.16,-336.25 886.47,-336.25 865.78,-336.25 848.97,-337.72 848.97,-339.52"/>
<text text-anchor="middle" x="886.47" y="-321.09" font-family="Times,serif" font-size="14.00">esdata03</text>
</g>
<!-- es03&#45;&gt;esdata03 -->
<g id="edge10" class="edge">
<title>es03&#45;&gt;esdata03</title>
<path fill="none" stroke="black" stroke-dasharray="5,2" d="M819.93,-429.95C825.15,-426.19 830.14,-422.06 834.47,-417.59 852.78,-398.68 866.92,-372.07 875.8,-352.37"/>
<polygon fill="black" stroke="black" points="817.98,-427.05 811.63,-435.53 821.88,-432.86 817.98,-427.05"/>
<polygon fill="black" stroke="black" points="879.08,-353.61 879.85,-343.04 872.66,-350.82 879.08,-353.61"/>
<text text-anchor="middle" x="942.47" y="-406.39" font-family="Times,serif" font-size="14.00">/usr/share/elasticsearch/data</text>
</g>
<!-- kibana -->
<g id="node10" class="node">
<title>kibana</title>
<polygon fill="none" stroke="black" points="1028.97,-562.59 757.97,-562.59 757.97,-558.59 753.97,-558.59 753.97,-554.59 757.97,-554.59 757.97,-532.59 753.97,-532.59 753.97,-528.59 757.97,-528.59 757.97,-524.59 1028.97,-524.59 1028.97,-562.59"/>
<polyline fill="none" stroke="black" points="757.97,-558.59 761.97,-558.59 761.97,-554.59 757.97,-554.59 "/>
<polyline fill="none" stroke="black" points="757.97,-532.59 761.97,-532.59 761.97,-528.59 757.97,-528.59 "/>
<text text-anchor="middle" x="893.47" y="-547.39" font-family="Times,serif" font-size="14.00">kibana</text>
<text text-anchor="middle" x="893.47" y="-532.39" font-family="Times,serif" font-size="14.00">(docker.elastic.co/kibana/kibana:8.9.2)</text>
</g>
<!-- kibana&#45;&gt;certs -->
<g id="edge12" class="edge">
<title>kibana&#45;&gt;certs</title>
<path fill="none" stroke="black" stroke-dasharray="5,2" d="M1039.41,-522.98C1056.01,-518.49 1069.48,-513.08 1076.47,-506.59 1093.69,-490.59 1090.47,-479.09 1090.47,-455.59 1090.47,-455.59 1090.47,-455.59 1090.47,-105 1090.47,-48.56 898.31,-27.74 815.6,-21.39"/>
<polygon fill="black" stroke="black" points="1038.15,-519.69 1029.3,-525.51 1039.86,-526.48 1038.15,-519.69"/>
<polygon fill="black" stroke="black" points="815.84,-17.9 805.61,-20.66 815.33,-24.88 815.84,-17.9"/>
<text text-anchor="middle" x="1189.97" y="-235.8" font-family="Times,serif" font-size="14.00">/usr/share/kibana/config/certs</text>
</g>
<!-- kibana&#45;&gt;es01 -->
<g id="edge15" class="edge">
<title>kibana&#45;&gt;es01</title>
<path fill="none" stroke="black" stroke-dasharray="1,5" d="M757.9,-528.94C590.08,-508.8 319.4,-464.58 262.47,-384.59 231.65,-341.29 244.92,-315.17 262.47,-265 268.15,-248.75 279.45,-233.47 290.33,-221.44"/>
<polygon fill="black" stroke="black" points="293.02,-223.69 297.36,-214.03 287.94,-218.87 293.02,-223.69"/>
</g>
<!-- kibana&#45;&gt;es02 -->
<g id="edge16" class="edge">
<title>kibana&#45;&gt;es02</title>
<path fill="none" stroke="black" stroke-dasharray="1,5" d="M757.64,-527.93C687.62,-517.33 612.37,-500.11 590.47,-473.59 562.88,-440.19 569.49,-386.61 577.2,-353.96"/>
<polygon fill="black" stroke="black" points="580.62,-354.7 579.7,-344.15 573.84,-352.98 580.62,-354.7"/>
</g>
<!-- kibana&#45;&gt;es03 -->
<g id="edge17" class="edge">
<title>kibana&#45;&gt;es03</title>
<path fill="none" stroke="black" stroke-dasharray="1,5" d="M869.02,-524.56C851.38,-511.56 827.37,-493.86 808.1,-479.65"/>
<polygon fill="black" stroke="black" points="810.01,-476.71 799.89,-473.59 805.86,-482.34 810.01,-476.71"/>
</g>
<!-- kibanadata -->
<g id="node11" class="node">
<title>kibanadata</title>
<path fill="none" stroke="black" d="M1061.97,-469.32C1061.97,-471.12 1041.13,-472.59 1015.47,-472.59 989.81,-472.59 968.97,-471.12 968.97,-469.32 968.97,-469.32 968.97,-439.86 968.97,-439.86 968.97,-438.06 989.81,-436.59 1015.47,-436.59 1041.13,-436.59 1061.97,-438.06 1061.97,-439.86 1061.97,-439.86 1061.97,-469.32 1061.97,-469.32"/>
<path fill="none" stroke="black" d="M1061.97,-469.32C1061.97,-467.51 1041.13,-466.04 1015.47,-466.04 989.81,-466.04 968.97,-467.51 968.97,-469.32"/>
<text text-anchor="middle" x="1015.47" y="-450.89" font-family="Times,serif" font-size="14.00">kibanadata</text>
</g>
<!-- kibana&#45;&gt;kibanadata -->
<g id="edge13" class="edge">
<title>kibana&#45;&gt;kibanadata</title>
<path fill="none" stroke="black" stroke-dasharray="5,2" d="M906.17,-515.51C911.21,-506.97 917.69,-498.08 925.47,-491.59 931.4,-486.64 944.67,-480.6 959.24,-474.9"/>
<polygon fill="black" stroke="black" points="902.98,-514.05 901.26,-524.51 909.12,-517.4 902.98,-514.05"/>
<polygon fill="black" stroke="black" points="960.84,-478.04 968.94,-471.22 958.35,-471.49 960.84,-478.04"/>
<text text-anchor="middle" x="1000.97" y="-495.39" font-family="Times,serif" font-size="14.00">/usr/share/kibana/data</text>
</g>
<!-- 0.0.0.05601 -->
<g id="node12" class="node">
<title>0.0.0.05601</title>
<ellipse fill="none" stroke="black" cx="893.47" cy="-673.38" rx="59.59" ry="59.59"/>
<text text-anchor="middle" x="893.47" y="-669.68" font-family="Times,serif" font-size="14.00">0.0.0.0:5601</text>
</g>
<!-- 0.0.0.05601&#45;&gt;kibana -->
<g id="edge14" class="edge">
<title>0.0.0.05601&#45;&gt;kibana</title>
<path fill="none" stroke="black" d="M893.47,-613.35C893.47,-599.33 893.47,-585 893.47,-573.07"/>
<polygon fill="black" stroke="black" points="896.97,-572.87 893.47,-562.87 889.97,-572.87 896.97,-572.87"/>
<text text-anchor="middle" x="908.97" y="-584.39" font-family="Times,serif" font-size="14.00">5601</text>
</g>
<!-- logstash -->
<g id="node13" class="node">
<title>logstash</title>
<polygon fill="none" stroke="black" points="1169.47,-692.38 1055.47,-692.38 1055.47,-688.38 1051.47,-688.38 1051.47,-684.38 1055.47,-684.38 1055.47,-662.38 1051.47,-662.38 1051.47,-658.38 1055.47,-658.38 1055.47,-654.38 1169.47,-654.38 1169.47,-692.38"/>
<polyline fill="none" stroke="black" points="1055.47,-688.38 1059.47,-688.38 1059.47,-684.38 1055.47,-684.38 "/>
<polyline fill="none" stroke="black" points="1055.47,-662.38 1059.47,-662.38 1059.47,-658.38 1055.47,-658.38 "/>
<text text-anchor="middle" x="1112.47" y="-677.18" font-family="Times,serif" font-size="14.00">logstash</text>
<text text-anchor="middle" x="1112.47" y="-662.18" font-family="Times,serif" font-size="14.00">(logstash:8.9.2)</text>
</g>
<!-- logstash&#45;&gt;certs -->
<g id="edge18" class="edge">
<title>logstash&#45;&gt;certs</title>
<path fill="none" stroke="black" stroke-dasharray="5,2" d="M1179.42,-658.62C1217.02,-647.59 1261.99,-628.35 1290.47,-595.59 1305.89,-577.85 1304.47,-568.09 1304.47,-544.59 1304.47,-544.59 1304.47,-544.59 1304.47,-105 1304.47,-55.43 935.93,-28.59 815.82,-21.16"/>
<polygon fill="black" stroke="black" points="1178.21,-655.32 1169.53,-661.38 1180.1,-662.06 1178.21,-655.32"/>
<polygon fill="black" stroke="black" points="815.84,-17.65 805.64,-20.54 815.41,-24.64 815.84,-17.65"/>
<text text-anchor="middle" x="1407.97" y="-321.09" font-family="Times,serif" font-size="14.00">/usr/share/logstash/config/certs</text>
</g>
<!-- logstash&#45;&gt;kibana -->
<g id="edge21" class="edge">
<title>logstash&#45;&gt;kibana</title>
<path fill="none" stroke="black" stroke-dasharray="1,5" d="M1081.56,-654.35C1042.7,-631.67 975.94,-592.71 933.29,-567.83"/>
<polygon fill="black" stroke="black" points="934.98,-564.76 924.58,-562.74 931.45,-570.81 934.98,-564.76"/>
</g>
<!-- ./logstash/config/ -->
<g id="node14" class="node">
<title>./logstash/config/</title>
<path fill="none" stroke="black" d="M1176.47,-558.32C1176.47,-560.12 1147.78,-561.59 1112.47,-561.59 1077.15,-561.59 1048.47,-560.12 1048.47,-558.32 1048.47,-558.32 1048.47,-528.86 1048.47,-528.86 1048.47,-527.06 1077.15,-525.59 1112.47,-525.59 1147.78,-525.59 1176.47,-527.06 1176.47,-528.86 1176.47,-528.86 1176.47,-558.32 1176.47,-558.32"/>
<path fill="none" stroke="black" d="M1176.47,-558.32C1176.47,-556.51 1147.78,-555.04 1112.47,-555.04 1077.15,-555.04 1048.47,-556.51 1048.47,-558.32"/>
<text text-anchor="middle" x="1112.47" y="-539.89" font-family="Times,serif" font-size="14.00">./logstash/config/</text>
</g>
<!-- logstash&#45;&gt;./logstash/config/ -->
<g id="edge19" class="edge">
<title>logstash&#45;&gt;./logstash/config/</title>
<path fill="none" stroke="black" stroke-dasharray="5,2" d="M1112.47,-644.28C1112.47,-622.71 1112.47,-593.09 1112.47,-571.75"/>
<polygon fill="black" stroke="black" points="1108.97,-644.35 1112.47,-654.35 1115.97,-644.35 1108.97,-644.35"/>
<polygon fill="black" stroke="black" points="1115.97,-571.72 1112.47,-561.72 1108.97,-571.72 1115.97,-571.72"/>
<text text-anchor="middle" x="1199.97" y="-584.39" font-family="Times,serif" font-size="14.00">/usr/share/logstash/config/</text>
</g>
<!-- 0.0.0.09600 -->
<g id="node15" class="node">
<title>0.0.0.09600</title>
<ellipse fill="none" stroke="black" cx="1112.47" cy="-843.97" rx="59.59" ry="59.59"/>
<text text-anchor="middle" x="1112.47" y="-840.27" font-family="Times,serif" font-size="14.00">0.0.0.0:9600</text>
</g>
<!-- 0.0.0.09600&#45;&gt;logstash -->
<g id="edge20" class="edge">
<title>0.0.0.09600&#45;&gt;logstash</title>
<path fill="none" stroke="black" d="M1112.47,-784.01C1112.47,-756.43 1112.47,-724.86 1112.47,-702.7"/>
<polygon fill="black" stroke="black" points="1115.97,-702.64 1112.47,-692.64 1108.97,-702.64 1115.97,-702.64"/>
<text text-anchor="middle" x="1127.97" y="-754.98" font-family="Times,serif" font-size="14.00">9600</text>
</g>
</g>
</svg>
